<?xml version="1.0" encoding="UTF-8"?> <svg xmlns="http://www.w3.org/2000/svg" width="416" height="299" viewBox="0 0 416 299" fill="none"> <path d="M395.9 120.4V113.7C395.9 87.7 374.9 65.9 347.8 65.9H336.9C308 24.1 259.9 0 208.1 0C156.3 0 108.2 24.1 79.3 65.9H68.5C41.4 65.9 20.1 87.7 20.1 113.7V120.4C5.4 129.1 0 138.8 0 149.3C0 159.8 5.4 169.5 20.1 178.2V184.9C20.1 210.9 41.4 233 68.5 233H79.4C108.3 272.3 156.4 298.9 208.2 298.9C260 298.9 308.1 272.3 336.9 233H347.8C374.9 233 395.9 210.9 395.9 184.9V178.2C410.6 169.5 416 159.8 416 149.3C416 138.8 410.6 129.1 395.9 120.4Z" fill="#663334"></path> <path d="M40 125.5C41.3 122.7 50.6 119.2 54.5 119.2L60.8 135.2L68.6 119C72.5 118.7 78.6 123 80.1 125.1L67.2 143.4L80.4 164.1C78.1 166.7 70.4 169.2 65.4 168.7L57.6 152.9L49.9 168.9C47.1 168.9 38.6 166.1 38 164L51.2 144.4L40 125.5ZM84.7 156.9C88.8 158 91.6 154.5 92.8 142.3L89 142.8C87.8 141.6 87.2 135.1 89.2 133.2H108.1C119.6 133.2 122.1 136.8 121.8 145L121.4 155.2C121.3 158.5 122 159 124.6 158.4C125.3 159.4 125.5 162.6 124.8 164.3C123.3 166.1 121.4 167.7 116.6 167.7C111.5 167.7 108.6 165.1 108.9 159.3L109.4 146.7C109.5 143.9 108.6 142.2 106.6 142L102.7 141.7C101.8 161.2 97.8 167.5 90.2 167.5C87 167.5 84.9 166.8 83.2 165.7C82.4 164.8 83.3 158.3 84.7 156.9V156.9ZM150 158.8C153.4 158.8 157.6 157.8 160.6 155.6C162.3 156.4 163.2 160.5 162.2 163.1C158.4 166.3 151.7 168 145.4 167.7C135.4 167.3 127.9 162 127.9 150.4C127.9 139.3 135.7 132.5 147.8 132.5C159.4 132.5 164 137.2 164 143.5C164 153.1 152.4 155.5 141.4 152.3C141.3 156.6 144.6 158.8 150 158.8V158.8ZM150.9 143C150.9 140.8 149.9 139 147.5 139C142.8 139 141.4 143.4 141.2 147.8C145.3 148.3 150.9 147.5 150.9 143ZM201.6 122.1C200.3 139.5 182.1 124.3 180.4 142C183 137.8 186.7 135.4 191.5 135.4C199.7 135.4 205.4 140.6 205.4 150.1C205.4 162.4 197.4 168.1 186.8 168.1C174.7 168.1 168.2 162.4 168.2 148.2C168.2 114.4 193.7 124 198.1 118.5C199.5 118.9 201.3 120.3 201.6 122.1V122.1ZM180.9 146.8C180.6 157.4 182.2 160.5 186.6 160.5C190.2 160.5 192.2 156.9 192.2 150.9C192.2 145.9 190.3 144 187.8 144C185.1 143.9 182.9 145 180.9 146.8V146.8ZM223.8 133.2L222.8 145.7H233.2C233.2 141.3 233.1 137.8 233.5 133.5C235.5 131.9 245 132.2 246.4 133.3C245.5 140.3 245.3 147.8 245.3 153C245.3 158.1 245.8 159.2 248.8 158.4C249.7 159.1 249.9 162.8 249.1 164.5C247.8 166.4 244.7 167.7 241.8 167.7C234.2 167.7 232.4 163.7 233.2 153.5L222.9 153.9L223.4 166.8C222.1 167.9 211.7 168.2 210.4 166.8L210.9 133.4C213 132.2 221.3 132.2 223.8 133.2V133.2ZM266.5 149.9C266.1 155.9 266.7 158.9 270.7 158.9C272.4 158.9 274.3 157.9 275.6 156.1C275.5 148.6 276.1 140.7 276.9 133C279.8 131.7 287 132.2 288.8 133C287.9 140.8 287.4 147.7 287.7 154.1C288 157.8 288.2 159.2 290.9 158.6C291.9 159.8 291.6 163.4 290.7 165C289.5 166.3 287.3 167.6 284.1 167.6C280.5 167.6 277.2 166.7 276.3 161.4C273.9 164.8 270.8 167.5 265.3 167.5C257.7 167.5 253.4 163.3 253.8 152.8L254.7 133.6C257.5 132.3 265.1 131.9 267.7 132.9L266.5 149.9V149.9ZM308.5 150.5C308.1 156 308.8 158.7 312.3 158.7C314.5 158.7 316.7 157.6 318 155.9C317.9 148.4 318.5 140.8 319.3 133.1C321.8 132.2 328.9 132.2 331.5 133.1C330.6 140.8 330.3 146.8 330.4 153.7C330.4 156.9 330.9 159.2 334.8 158.2C335.6 158.3 335.7 160.3 335.5 161.4C334 165.6 333 171.9 332.9 178.5C331.1 179.8 323.8 179.5 322.1 177.2C321.6 174.1 323 169.4 326 166.7C322.8 167.8 319.3 166.8 319 161.6C316.2 164.9 313.4 167.7 307.7 167.7C298.7 167.7 295.5 162 295.8 154.3L296.7 133.8C299.5 132.7 306.5 132.3 309.6 133.1L308.5 150.5V150.5ZM373.4 154.4C373.4 158.1 374.3 158.9 376.6 158.6C377.6 159.5 377.5 164.1 376.3 165.5C375.1 166.5 373.2 167.7 369.4 167.7C365.6 167.7 362.5 165.5 361.9 162.2C359.9 165.6 357.7 168.1 352.3 168.1C345.3 168.1 338.5 163.2 338.5 151.4C338.5 139.3 345.1 132.5 352.9 132.5C357.7 132.5 360.8 134.7 362.5 137.5L363.6 133C364.5 132.5 373.5 132.7 374.2 133.5C373.6 144.7 373.4 150.9 373.4 154.4V154.4ZM357.2 141.3C353.8 141.3 351.7 145 351.7 151.4C351.7 157.1 353.6 159.4 356.6 159.4C358.4 159.4 360 158.3 361 157L361.7 143C360.7 142 358.9 141.3 357.2 141.3V141.3ZM207.5 270.2C208.4 271.4 208.8 272.6 208.7 273.6C208.6 274.4 208.3 275.1 207.9 275.6C207 274.4 206.6 273.2 206.7 272.2C206.7 271.4 207.1 270.7 207.5 270.2Z" fill="#FEF1E6"></path> <path d="M207.6 267.5C207.6 267.5 201.2 271.8 207.7 278.3V278.2V278.3C207.7 278.3 214.2 274.1 207.6 267.5ZM238.9 266.1C240.1 267 240.8 268 240.9 269.1C241 269.9 240.9 270.7 240.6 271.3C239.4 270.4 238.7 269.4 238.6 268.3C238.4 267.5 238.6 266.7 238.9 266.1Z" fill="#FEF1E6"></path> <path d="M238.3 263.5C238.3 263.5 233.2 269.3 241.2 273.9V273.8V273.9C241.2 273.9 246.3 268.2 238.3 263.5C238.3 263.6 238.3 263.5 238.3 263.5ZM144.2 39.5C145.6 40.1 146.5 40.9 147 41.9C147.3 42.6 147.4 43.4 147.3 44.1C145.9 43.5 145 42.7 144.5 41.7C144.2 40.9 144.1 40.1 144.2 39.5" fill="#FEF1E6"></path> <path d="M143 37.1C143 37.1 139.6 44 148.5 46.4V46.3V46.4C148.5 46.4 151.9 39.5 143 37.1ZM268.1 254.1C269.5 254.7 270.4 255.5 270.9 256.5C271.2 257.2 271.3 258 271.2 258.7C269.8 258.1 268.9 257.3 268.4 256.3C268 255.5 268 254.7 268.1 254.1Z" fill="#FEF1E6"></path> <path d="M266.9 251.7C266.9 251.7 263.5 258.6 272.4 261V260.9V261C272.4 261 275.8 254.1 266.9 251.7ZM118 59.6C119.5 59.8 120.6 60.4 121.3 61.2C121.8 61.8 122.1 62.6 122.2 63.2C120.7 63 119.6 62.4 118.9 61.6C118.3 61 118.1 60.3 118 59.6Z" fill="#FEF1E6"></path> <path d="M116.2 57.7C116.2 57.7 114.7 65.3 124 65.3C133.3 65.3 125.5 57.7 116.2 57.7ZM293.2 234.9C294.7 235.1 295.8 235.7 296.5 236.5C297 237.1 297.3 237.9 297.4 238.5C295.9 238.3 294.8 237.7 294.1 236.9C293.5 236.3 293.3 235.5 293.2 234.9" fill="#FEF1E6"></path> <path d="M291.4 232.9C291.4 232.9 289.9 240.5 299.2 240.5L299.1 240.4L299.2 240.5C299.2 240.5 300.7 232.9 291.4 232.9V232.9ZM98.8 85.8C101.2 85.8 102.3 87.1 102.8 88.3C102.5 88.3 102.2 88.4 101.9 88.4C99.5 88.4 98.4 87.1 97.9 85.9C98.2 85.9 98.5 85.8 98.8 85.8Z" fill="#FEF1E6"></path> <path d="M98.8 84C97.9 84 96.8 84.1 95.6 84.5C95.6 84.5 96 90.3 101.9 90.3C102.8 90.3 103.9 90.2 105.1 89.8H105H105.1C105.1 89.8 104.7 84 98.8 84ZM313.4 209.7C315.8 209.7 316.9 211 317.4 212.2C317.1 212.2 316.8 212.3 316.5 212.3C314.1 212.3 313 211 312.5 209.8C312.8 209.8 313.1 209.7 313.4 209.7Z" fill="#FEF1E6"></path> <path d="M313.4 207.9C312.5 207.9 311.4 208 310.2 208.4C310.2 208.4 310.6 214.2 316.5 214.2C317.4 214.2 318.5 214.1 319.7 213.7H319.6H319.7C319.7 213.7 319.3 207.9 313.4 207.9ZM102.1 209.4H102.7C101.4 212.5 99.4 212.5 98.7 212.5H98.1C99.4 209.5 101.4 209.4 102.1 209.4Z" fill="#FEF1E6"></path> <path d="M102.1 207.6C99.9 207.6 97.1 208.7 95.7 213.8C95.7 213.8 97 214.4 98.7 214.4C100.9 214.4 103.7 213.3 105.1 208.2C106.5 203.1 103.7 207.6 102.1 207.6ZM316.7 85.5H317.3C316 88.6 314 88.6 313.3 88.6H312.7C314 85.6 315.9 85.5 316.7 85.5Z" fill="#FEF1E6"></path> <path d="M316.7 83.7C314.5 83.7 311.7 84.8 310.3 89.9C310.3 89.9 311.6 90.5 313.3 90.5C315.5 90.5 318.3 89.4 319.7 84.3H319.6H319.7C319.7 84.3 318.3 83.7 316.7 83.7ZM121.9 234.6C121.5 237.1 120.3 238.5 118.3 238.7C118.5 237.2 119.1 236.1 119.9 235.4C120.5 234.9 121.2 234.7 121.9 234.6" fill="#FEF1E6"></path> <path d="M122.7 232.7C120.6 232.7 116.3 233.6 116.3 240.6C116.3 247.6 116.8 240.7 117.5 240.7C119.6 240.7 123.9 239.8 123.9 232.8L123.8 232.9L123.9 232.8C123.9 232.8 123.4 232.7 122.7 232.7ZM297.1 59.4C296.7 61.9 295.5 63.3 293.5 63.5C293.7 62 294.3 60.9 295.1 60.2C295.7 59.7 296.4 59.5 297.1 59.4" fill="#FEF1E6"></path> <path d="M297.9 57.5C295.8 57.5 291.5 58.4 291.5 65.4C291.5 72.4 292 65.5 292.7 65.5C294.8 65.5 299.1 64.6 299.1 57.6L299 57.7L299.1 57.6C299.1 57.6 298.6 57.5 297.9 57.5ZM146.9 253.9C147.1 255.4 146.8 256.6 146.2 257.5C145.7 258.2 145.1 258.6 144.5 258.9C144.3 257.4 144.6 256.2 145.2 255.3C145.7 254.6 146.3 254.1 146.9 253.9Z" fill="#FEF1E6"></path> <path d="M148.4 251.6C148.4 251.6 140.7 252.1 143.1 261.1V261V261.1C143.1 261.1 150.8 260.6 148.4 251.6C148.4 251.7 148.4 251.7 148.4 251.6C148.4 251.7 148.3 251.7 148.4 251.6ZM270.8 39.3C271 40.8 270.7 42 270.1 42.9C269.6 43.6 269 44 268.4 44.3C268.2 42.8 268.5 41.6 269.1 40.7C269.6 40 270.2 39.6 270.8 39.3" fill="#FEF1E6"></path> <path d="M272.3 37C272.3 37 264.6 37.5 267 46.5V46.4V46.5C267 46.5 274.7 46 272.3 37C272.3 37.1 272.2 37.1 272.3 37V37ZM176.1 266C176.7 267.4 176.7 268.6 176.4 269.6C176.1 270.4 175.6 271 175.1 271.4C174.5 270 174.5 268.8 174.8 267.8C175.1 267 175.6 266.4 176.1 266Z" fill="#FEF1E6"></path> <path d="M176.9 263.5C176.9 263.5 169.6 266 174.2 274V273.9V274C174.3 274 181.6 271.5 176.9 263.5ZM145 200.5C145 201.7 145 202.3 146.8 201.8C147.2 202.4 147.3 204.4 146.8 205.2C146.1 206.2 144.1 206.9 142.3 206.9C139.5 206.9 138 205.6 138.2 201.9L138.5 196C138.6 193.7 137.6 193.1 136.2 193.1C135.1 193.1 134.1 193.7 133.3 194.6L133.2 206.5C132.2 206.9 127 207.1 126.1 206.5C126.4 199 127 194.6 126.4 188.2C127.1 187.4 132.4 187.3 133.2 187.8L133.5 191.2C134.9 188.6 138 187.6 140.2 187.6C144.5 187.6 145.4 190.4 145.4 194.6L145 200.5ZM161.6 202C163.4 202 165.8 201.4 167.4 200.3C168.3 200.7 168.8 203 168.3 204.4C166.2 206.1 162.5 207.1 159.1 206.9C153.6 206.7 149.5 203.8 149.5 197.4C149.5 191.3 153.8 187.6 160.4 187.6C166.8 187.6 169.3 190.2 169.3 193.6C169.3 198.9 162.9 200.2 156.9 198.4C156.8 200.8 158.6 202 161.6 202V202ZM162.1 193.4C162.1 192.2 161.5 191.2 160.3 191.2C157.7 191.2 156.9 193.6 156.8 196C159 196.3 162.1 195.8 162.1 193.4V193.4ZM172.8 206.4L173.7 188.6C174.2 187.8 180 187.3 180.7 187.8L180 195.5L181.8 195.1L185.3 188C186.7 187.5 191.8 188 192.4 188.7L187.3 196.6C189 200.9 190.3 202.2 191.5 202.3C191.9 202.3 192.3 202.2 192.6 202C193.3 202.4 193.6 204.3 193.2 205.5C192.2 206.6 190.6 207.2 189.1 207.2C185.4 207.2 183.1 204.8 181 198.7L179.6 198.8V206.3C179.4 206.9 173.6 207.1 172.8 206.4V206.4ZM215 199.6C215 201.6 215.5 202.1 216.8 201.9C217.4 202.4 217.3 204.9 216.6 205.7C215.9 206.3 214.9 206.9 212.8 206.9C210.7 206.9 209 205.7 208.7 203.9C207.6 205.8 206.4 207.1 203.5 207.1C199.7 207.1 195.9 204.4 195.9 197.9C195.9 191.2 199.5 187.5 203.8 187.5C206.4 187.5 208.1 188.7 209.1 190.2L209.7 187.7C210.2 187.4 215.1 187.6 215.5 188C215.1 194.3 215 197.7 215 199.6V199.6ZM206.1 192.4C204.3 192.4 203.1 194.4 203.1 197.9C203.1 201 204.1 202.3 205.8 202.3C206.8 202.3 207.6 201.7 208.2 201L208.6 193.3C208 192.8 207 192.4 206.1 192.4ZM228.1 190.7C229.5 189 231.2 187.5 234.3 187.5C237.6 187.5 240.8 189.5 240.8 195.9C240.8 205.4 234.9 208.2 227.7 205.9L227.3 214.7C225.9 215.4 221.4 215.4 220.2 214.9C220.7 206 221.7 197.1 221.2 188.1C222.5 187.3 226.6 187.3 228 187.7L228.1 190.7ZM227.7 201.7C231.7 203.7 233.3 200.9 233.3 196.7C233.3 194 232.6 193 230.9 193C229.8 193 228.8 193.6 228 194.6L227.7 201.7V201.7ZM252 188L251.4 194.8H257.1C257.1 192.4 257.1 190.5 257.3 188.1C258.4 187.3 263.6 187.4 264.4 188C263.9 191.8 263.8 196 263.8 198.8C263.8 201.6 264.1 202.2 265.7 201.8C266.2 202.2 266.3 204.2 265.8 205.1C265.1 206.1 263.4 206.8 261.8 206.8C257.6 206.8 256.6 204.6 257.1 199L251.4 199.2L251.7 206.3C251 206.9 245.3 207.1 244.6 206.3L244.9 188C246.1 187.4 250.6 187.4 252 188V188ZM287.6 200.1C287.5 202.1 288.3 202 289 201.9C289.3 202.5 289.6 204.4 289.2 205.2C288.4 206.2 287.1 206.8 285.3 206.8C281.8 206.8 280.3 204 281 198.7L279.2 199.3C278 204.5 276.1 206.9 272.8 206.9C271.1 206.9 269.6 206.3 269.1 205.4C268.8 204.7 269 202.6 269.7 201.8C271.6 202.2 272.7 201.4 273.8 198.4C271.4 197.8 269.8 196.1 269.8 193.6C269.8 189.6 273.7 187.6 279.2 187.6C285.5 187.6 288 190.4 287.9 194.7L287.6 200.1V200.1ZM278.7 191.2C277.4 191.2 276.7 192.1 276.7 193.6C276.7 195.8 278.5 196.6 281.2 195.5C281.5 192.6 280.8 191.2 278.7 191.2ZM253.6 68.7C252.9 57.9 247.6 45.2 234.2 41.4C221.6 37.8 211.7 41 206.6 45.3C201.6 49.7 199.4 53 198.6 61.1C197.8 68.5 200.7 74.5 201.4 76C195.2 82.5 189.4 85.4 183.3 87.1C180.8 85 177.5 80.8 176.5 72.3C175.3 62 180.3 55.4 188.4 52.7C193.1 51.2 196.7 51.5 199.2 52.3C199.6 51.6 200 50.9 200.5 50C202.5 46.6 204.8 44.7 206 43.9C202.7 41.9 197.4 39.8 189.7 40.4C173.2 41.5 164.7 51.2 162.3 62.2C159.6 74.7 164.7 84.8 168.7 90.5C166.5 91.9 166.3 95 167.9 97.3C169.8 99.9 176.6 99.1 180.9 98C189.4 95.8 196.4 94.1 202.4 88.9C210.7 81.7 214.4 78.2 215.9 67C216.6 61.7 216.1 57.9 215.5 55.5C214.4 56.2 210.2 59.2 208.3 63.5C208.1 64 207.9 64.4 207.7 64.8C207.7 64.5 207.8 64.2 207.8 63.9C207.8 63.9 207.5 59.1 211.6 54.8C212.5 53.9 213.3 53.3 213.9 53C218.9 49.9 227.5 49.5 233.6 54.6C240.6 60.4 241.6 70.4 237.6 78.5C236.3 81.2 234.2 83.7 232.1 85.8C233.6 86.2 236.9 87 241.7 87.4C244 87.6 245.9 87.7 247.4 87.8C250.5 82.8 254 75.2 253.6 68.7ZM165 66.4C165.7 57.3 172.1 48.2 181.2 44.8C188.7 42 196.5 42.5 197.5 44.7C198.1 46.1 196.9 47.1 192.2 47.5C187.5 47.9 182.4 48.7 177.4 52.5C172.9 55.9 160.7 67.1 170.4 84.9C167 80.4 164.3 75.4 165 66.4V66.4ZM208.6 66.1C208.6 66.1 209.2 76.6 197.7 85.2C190.4 90.6 180.8 93.6 175.2 94.6C174.7 94.7 174.2 94.8 173.7 94.8H172.5C171.5 94.9 170.8 94.8 170.5 94.7C169.5 94.1 169.2 92.9 170.1 92.1L170.2 92C170.2 92 170.3 91.9 170.4 91.9H170.6C170.6 91.9 170.7 91.9 170.7 91.8H170.9C170.9 91.8 171 91.8 171 91.7H173.8C174 91.7 174.1 91.7 174.3 91.6H174.8C175 91.6 175.2 91.5 175.4 91.5C175.5 91.5 175.7 91.5 175.8 91.4C178.3 91 181.5 90.3 184.9 89.4L185.8 89.1C190 87.8 194.2 86.1 197.4 83.8C207.9 75.4 208.6 66.1 208.6 66.1V66.1ZM210.1 46.6C205.3 50.5 199.1 59 203.2 74.1L203 74.3C199 67.9 198.7 59.2 202.7 51.6C205.4 46.5 212.1 42.1 220.2 41.4C228.2 40.7 235.4 42.3 240.1 45.7C229.5 39.9 215.4 42.4 210.1 46.6V46.6ZM233.7 87.3C223.5 84.8 217.9 79.8 214.9 75.9C214.2 77.8 212.7 81.4 209.8 84.9C213.3 88.4 217.4 91.2 221.7 93.6C221.7 93.6 221.6 93.6 221.6 93.5C217.7 95.1 211.8 96.6 203.4 96.3C201.2 96.2 199 95.8 197 95.2C196 95.7 195 96.2 194 96.6C188.6 98.8 183.9 100.1 181 100.8C186.5 104.1 195.7 107.8 208.6 107.5C224.5 107.1 234 102.5 238.1 99.9C243.3 100.8 246.6 99.2 247 95.6C247.4 90.9 241.2 89.1 233.7 87.3V87.3ZM243.3 97.8C242.2 99.3 225.8 95.2 213.2 84.4C213.2 84.4 221 90.5 231.9 93.5C241.8 96 244.5 96.1 243.3 97.8Z" fill="#FEF1E6"></path> </svg> 